<?xml version="1.0" encoding="UTF-8" standalone="no"?>
<!-- Created with Inkscape (http://www.inkscape.org/) -->

<svg
   width="12.7mm"
   height="12.7mm"
   viewBox="0 0 12.7 12.7"
   version="1.1"
   id="svg5"
   xml:space="preserve"
   inkscape:version="1.2.2 (732a01da63, 2022-12-09)"
   sodipodi:docname="Logo.svg"
   inkscape:export-filename="Logo.png"
   inkscape:export-xdpi="1024"
   inkscape:export-ydpi="1024"
   xmlns:inkscape="http://www.inkscape.org/namespaces/inkscape"
   xmlns:sodipodi="http://sodipodi.sourceforge.net/DTD/sodipodi-0.dtd"
   xmlns="http://www.w3.org/2000/svg"
   xmlns:svg="http://www.w3.org/2000/svg"><sodipodi:namedview
     id="namedview7"
     pagecolor="#505050"
     bordercolor="#eeeeee"
     borderopacity="1"
     inkscape:showpageshadow="0"
     inkscape:pageopacity="0"
     inkscape:pagecheckerboard="0"
     inkscape:deskcolor="#505050"
     inkscape:document-units="mm"
     showgrid="false"
     showguides="true"
     inkscape:zoom="10.666667"
     inkscape:cx="11.0625"
     inkscape:cy="22.125"
     inkscape:window-width="2560"
     inkscape:window-height="1009"
     inkscape:window-x="-8"
     inkscape:window-y="-8"
     inkscape:window-maximized="1"
     inkscape:current-layer="layer1"
     inkscape:lockguides="false"><inkscape:grid
       type="xygrid"
       id="grid4217"
       originx="0"
       originy="0" /></sodipodi:namedview><defs
     id="defs2"><filter
       x="-1.436647"
       width="3.8732943"
       y="-1.436735"
       height="3.8734703"
       inkscape:menu="Non-Realistic 3D Shaders"
       inkscape:menu-tooltip="Comics cartoon drawing effect"
       inkscape:label="Comics"
       style="color-interpolation-filters:sRGB"
       id="filter23547"><feGaussianBlur
         in="SourceGraphic"
         stdDeviation="5"
         result="result8"
         id="feGaussianBlur23529" /><feComposite
         in2="result8"
         operator="xor"
         result="result19"
         id="feComposite23531" /><feComposite
         k2="1"
         operator="arithmetic"
         result="result17"
         in2="result8"
         id="feComposite23533" /><feOffset
         result="result18"
         in="SourceGraphic"
         id="feOffset23535" /><feDisplacementMap
         in2="result17"
         in="result18"
         xChannelSelector="A"
         yChannelSelector="A"
         scale="100"
         result="result4"
         id="feDisplacementMap23537" /><feComposite
         in2="result4"
         result="result2"
         operator="arithmetic"
         in="SourceGraphic"
         k3="1"
         id="feComposite23539" /><feComposite
         in2="SourceGraphic"
         result="fbSourceGraphic"
         in="result2"
         operator="in"
         id="feComposite23541" /><feComposite
         in2="SourceGraphic"
         operator="in"
         result="result15"
         id="feComposite23543" /><feComposite
         result="result16"
         in2="SourceGraphic"
         operator="in"
         in="result15"
         id="feComposite23545" /></filter><filter
       inkscape:collect="always"
       style="color-interpolation-filters:sRGB"
       id="filter889"
       x="-0.023920286"
       y="-0.042920959"
       width="1.0478406"
       height="1.0858419"><feGaussianBlur
         inkscape:collect="always"
         stdDeviation="0.10743462"
         id="feGaussianBlur891" /></filter><filter
       inkscape:collect="always"
       style="color-interpolation-filters:sRGB"
       id="filter915"
       x="-0.023920466"
       y="-0.042920379"
       width="1.0478409"
       height="1.0858408"><feGaussianBlur
         inkscape:collect="always"
         stdDeviation="0.10743524"
         id="feGaussianBlur917" /></filter><filter
       inkscape:collect="always"
       style="color-interpolation-filters:sRGB"
       id="filter941"
       x="-0.028714874"
       y="-0.03302618"
       width="1.0574297"
       height="1.0660524"><feGaussianBlur
         inkscape:collect="always"
         stdDeviation="0.06344112"
         id="feGaussianBlur943" /></filter><filter
       inkscape:collect="always"
       style="color-interpolation-filters:sRGB"
       id="filter971"
       x="-0.028795592"
       y="-0.032920044"
       width="1.0575912"
       height="1.0658401"><feGaussianBlur
         inkscape:collect="always"
         stdDeviation="0.06360979"
         id="feGaussianBlur973" /></filter><filter
       inkscape:collect="always"
       style="color-interpolation-filters:sRGB"
       id="filter898"
       x="-0.030719999"
       y="-0.03072"
       width="1.06144"
       height="1.06144"><feGaussianBlur
         inkscape:collect="always"
         stdDeviation="1.5662142"
         id="feGaussianBlur900" /></filter><filter
       inkscape:collect="always"
       style="color-interpolation-filters:sRGB"
       id="filter929"
       x="-0.05674207"
       y="-0.03204295"
       width="1.1134841"
       height="1.0640859"><feGaussianBlur
         inkscape:collect="always"
         stdDeviation="0.064938564"
         id="feGaussianBlur931" /></filter></defs><g
     inkscape:label="Layer 1"
     inkscape:groupmode="layer"
     id="layer1"><path
       id="OrangeBackArrow-5"
       style="mix-blend-mode:multiply;fill:#000000;fill-opacity:1;stroke:none;stroke-width:0;stroke-dasharray:none;stroke-opacity:1;filter:url(#filter971)"
       d="M 9.9415053,5.5217126 C 10.293786,4.9053524 10.656788,4.2946593 11.00231,3.6747269 11.116055,3.3854157 11.071484,3.0185053 10.866677,2.7799101 10.619773,2.5161599 10.206466,2.6051404 9.9414453,2.7917207 8.5482583,3.5961017 7.1550723,4.4004826 5.7618859,5.2048636 6.1559095,5.887333 6.5499333,6.5698021 6.9439573,7.2522715 7.9431493,6.6754377 8.9422633,6.0984477 9.9415053,5.5217126 Z"
       sodipodi:nodetypes="ccccccccccccccccccccccc"
       transform="matrix(0.96682019,0,0,0.96682019,0.10065518,0.11750161)" /><path
       id="OrangeBackArrow"
       style="fill:#783200;fill-opacity:1;stroke:none;stroke-width:0;stroke-dasharray:none;stroke-opacity:1"
       d="M 9.7123029,5.4560048 C 10.052896,4.8600953 10.403853,4.269665 10.73791,3.6703017 10.847881,3.3905898 10.804789,3.0358535 10.606778,2.8051749 10.368067,2.5501758 9.9684725,2.636204 9.7122448,2.8165934 8.3652841,3.5942853 7.0183235,4.371977 5.6713629,5.1496688 6.0523128,5.8094939 6.4332633,6.4693189 6.8142133,7.129144 7.7802526,6.5714495 8.7462157,6.0136038 9.7123029,5.4560048 Z"
       sodipodi:nodetypes="ccccccccccccccccccccccc" /><path
       id="BlueBackArrow-6"
       style="mix-blend-mode:multiply;fill:#000000;fill-opacity:1;stroke:none;stroke-width:0.016623;stroke-opacity:1;filter:url(#filter941)"
       d="m 3.0000025,7.3446077 -1.0181452,1.7638951 -0.00988,0.01626 c -0.00501,0.0099 -0.0098,0.01991 -0.014349,0.03003 -0.00653,0.01208 -0.012702,0.02435 -0.018522,0.03679 -0.00538,0.01269 -0.010401,0.02553 -0.015044,0.03851 -0.00628,0.01612 -0.011971,0.03246 -0.017066,0.04899 -0.00384,0.01328 -0.0073,0.02667 -0.010366,0.04015 -0.00336,0.01462 -0.00626,0.02935 -0.00869,0.04415 -0.0028,0.01532 -0.00509,0.03074 -0.00688,0.04621 -0.00142,0.01361 -0.00245,0.02726 -0.00309,0.04092 -7.816e-4,0.01607 -0.00102,0.03217 -7.192e-4,0.04825 0.00246,0.0434 0.00513,0.08367 0.00788,0.1285 C 2.015509,10.212066 2.3608878,10.30175 2.8592425,10.172894 4.3549973,9.3241068 5.898733,8.4009021 7.179558,7.6614181 L 6.7074267,6.8436631 6.4634267,6.4210425 5.9974861,5.6140098 5.4812089,5.9120826 3.0004686,7.3443388 Z"
       sodipodi:nodetypes="ccccccccccccccccccccc"
       transform="matrix(0.96682019,0,0,0.96682019,0.10065518,0.11750161)" /><path
       id="BlueBackArrow"
       style="fill:#002e63;fill-opacity:1;stroke:none;stroke-width:0.0160716;stroke-opacity:1"
       d="m 3.0015688,7.2181565 -0.9843633,1.7053693 -0.00956,0.015725 c -0.00484,0.00957 -0.00947,0.019249 -0.013873,0.029032 -0.00631,0.011685 -0.012275,0.023542 -0.017907,0.035568 -0.0052,0.012263 -0.010052,0.024682 -0.014545,0.037229 -0.00607,0.015585 -0.011572,0.031385 -0.0165,0.047367 -0.00371,0.012841 -0.00706,0.025786 -0.010026,0.038822 -0.00325,0.014136 -0.00606,0.028375 -0.00841,0.042687 -0.0027,0.014817 -0.00493,0.029718 -0.00666,0.044678 -0.00138,0.013158 -0.00237,0.026352 -0.00299,0.039566 -7.556e-4,0.015539 -9.829e-4,0.031099 -6.954e-4,0.046652 0.00239,0.041961 0.00496,0.080896 0.00761,0.1242357 0.1260914,0.5653976 0.4600106,0.6521055 0.94183,0.5275249 C 4.3116049,9.1319757 5.8041199,8.2394033 7.0424474,7.5244552 L 6.5859812,6.7338331 6.3500771,6.3252352 5.8995963,5.5449796 5.4004492,5.8331624 3.0020195,7.2178966 Z"
       sodipodi:nodetypes="ccccccccccccccccccccc" /><path
       id="OrangeFrontArrow-2"
       style="mix-blend-mode:multiply;fill:#000000;fill-opacity:1;stroke:none;stroke-width:0.0176937;stroke-dasharray:none;stroke-opacity:1;filter:url(#filter915);image-rendering:auto"
       d="M 6.3871559,6.2877556 C 6.1787561,5.9267966 5.9703562,5.5658376 5.7619564,5.2048786 7.2078903,4.3742533 8.6463763,3.529492 10.098398,2.7103661 10.535742,2.5321325 11.084071,2.8960481 11.064904,3.3751602 11.076201,1.8896274 9.8910403,0.48654344 8.4033903,0.31158154 7.5937693,0.18674994 6.7794373,0.44634104 6.1047114,0.88666984 5.395742,1.2959935 4.6867727,1.7053171 3.9778033,2.1146408 3.7641128,1.7445179 3.5504222,1.3743951 3.3367317,1.0042722 2.3200947,2.7654984 1.3032333,4.5265949 0.2861473,6.2875616 c 2.0336695,6.6e-5 4.0673391,1.3e-4 6.1010086,1.94e-4 z"
       sodipodi:nodetypes="cccsccccccccccc"
       transform="matrix(0.96682019,0,0,0.96682019,0.10065518,0.11750161)" /><path
       id="OrangeFrontArrow"
       style="fill:#e66600;fill-opacity:1;stroke:none;stroke-width:0.0171066;stroke-dasharray:none;stroke-opacity:1;image-rendering:auto"
       d="M 6.2758863,6.1966307 C 6.0744012,5.8476481 5.872916,5.4986656 5.6714307,5.1496831 7.0693889,4.346618 8.460146,3.5298857 9.8639901,2.7379382 10.286823,2.5656184 10.816958,2.9174593 10.798428,3.3806746 10.809349,1.9444315 9.6635128,0.5879016 8.2252222,0.41874496 7.4424643,0.29805528 6.6551523,0.54903307 6.0028133,0.97475193 5.3173673,1.3704942 4.6319216,1.7662366 3.9464756,2.161979 3.7398753,1.8041367 3.5332749,1.4462945 3.3266747,1.0884523 2.3437696,2.7912413 1.3606475,4.4939049 0.3773081,6.1964431 c 1.9661927,6.34e-5 3.9323856,1.259e-4 5.8985782,1.876e-4 z"
       sodipodi:nodetypes="cccsccccccccccc" /><path
       style="color:#000000;fill:#d7bc37;stroke:#000000;stroke-width:0.00966821;stroke-dasharray:none;stroke-opacity:1"
       d="M 9.8338273,4.4494795 C 10.958983,6.3983029 10.291139,8.8903254 8.3421591,10.015569 6.393181,11.140812 3.9009598,10.472918 2.7758054,8.5240941 1.6506513,6.5752702 2.3186386,4.0834982 4.2676171,2.958255 6.2165965,1.8330112 8.7086728,2.5006553 9.8338273,4.4494795 Z"
       id="CoinColor" /><path
       id="CoinEdge-1"
       style="display:inline;mix-blend-mode:multiply;fill:#000000;fill-opacity:1;stroke:none;stroke-width:0.262415;stroke-opacity:1;filter:url(#filter898)"
       d="m 108.80524,35.211804 c -33.788897,4.5e-5 -61.180198,27.391348 -61.18024,61.180245 4.4e-5,33.788891 27.391345,61.180201 61.18024,61.180241 33.7889,-4e-5 61.18021,-27.39134 61.18025,-61.180241 -4e-5,-33.788901 -27.39135,-61.180206 -61.18025,-61.180245 z m 2.65979,3.282487 c 31.06685,-2.19e-4 56.25157,25.184495 56.25135,56.251347 -7e-5,31.066652 -25.1847,56.251052 -56.25135,56.250832 C 80.398582,150.9964 55.214268,125.81209 55.214201,94.745638 55.213984,63.678989 80.398381,38.49436 111.46503,38.494291 Z"
       class="UnoptimicedTransforms"
       transform="matrix(0.066603,-2.296993e-6,-2.2908279e-6,0.06660035,-0.94770178,0.05827953)"
       sodipodi:nodetypes="cccccccccc" /><path
       id="CoinEdge"
       style="fill:#000000;fill-opacity:1;stroke:none;stroke-width:0.262415;stroke-opacity:1"
       d="m 108.80524,35.211804 c -33.788897,4.5e-5 -61.180198,27.391348 -61.18024,61.180245 4.4e-5,33.788891 27.391345,61.180201 61.18024,61.180241 33.7889,-4e-5 61.18021,-27.39134 61.18025,-61.180241 -4e-5,-33.788901 -27.39135,-61.180206 -61.18025,-61.180245 z m 2.65979,3.282487 c 31.06685,-2.19e-4 56.25157,25.184495 56.25135,56.251347 -7e-5,31.066652 -25.1847,56.251052 -56.25135,56.250832 C 80.398582,150.9964 55.214268,125.81209 55.214201,94.745638 55.213984,63.678989 80.398381,38.49436 111.46503,38.494291 Z"
       class="UnoptimicedTransforms"
       transform="matrix(0.066603,-2.296993e-6,-2.2908279e-6,0.06660035,-0.94770178,0.05827953)"
       sodipodi:nodetypes="cccccccccc" /><text
       xml:space="preserve"
       style="font-size:5.50951px;line-height:0;font-family:'Berlin Sans FB';-inkscape-font-specification:'Berlin Sans FB';display:inline;mix-blend-mode:multiply;fill:#000000;fill-opacity:1;stroke:none;stroke-width:0.250161;stroke-miterlimit:4;stroke-dasharray:none;stroke-opacity:1;filter:url(#filter929)"
       x="1.207152"
       y="10.369523"
       id="text21529-6"
       transform="matrix(0.93136976,-0.53772658,0.43458018,0.75271495,-0.03040829,1.7057201)"><tspan
         sodipodi:role="line"
         id="tspan21527-1"
         style="font-style:normal;font-variant:normal;font-weight:bold;font-stretch:normal;font-size:5.50951px;font-family:Bahnschrift;-inkscape-font-specification:'Bahnschrift Bold';fill:#000000;fill-opacity:1;stroke:none;stroke-width:0.250161"
         x="1.207152"
         y="10.369523">$</tspan></text><text
       xml:space="preserve"
       style="font-size:5.32671px;line-height:0;font-family:'Berlin Sans FB';-inkscape-font-specification:'Berlin Sans FB';fill:#d7bc37;fill-opacity:1;stroke:none;stroke-width:0.241861;stroke-miterlimit:4;stroke-dasharray:none;stroke-opacity:1"
       x="0.37671319"
       y="11.651727"
       id="text21529"
       transform="matrix(0.96333297,-0.55618055,0.44949432,0.778547,0,0)"><tspan
         sodipodi:role="line"
         id="tspan21527"
         style="font-style:normal;font-variant:normal;font-weight:bold;font-stretch:normal;font-size:5.32671px;font-family:Bahnschrift;-inkscape-font-specification:'Bahnschrift Bold';fill:#000000;fill-opacity:1;stroke:none;stroke-width:0.241861"
         x="0.37671319"
         y="11.651727">$</tspan></text><path
       id="BlueFrontArrow-1"
       style="mix-blend-mode:multiply;fill:#000000;fill-opacity:1;stroke:none;stroke-width:0.0176937;stroke-dasharray:none;stroke-opacity:1;filter:url(#filter889);image-rendering:auto"
       d="M 6.5548245,6.5782718 C 6.7632244,6.9392309 6.9716242,7.3001901 7.1800241,7.6611492 5.7340848,8.4917648 4.2956179,9.3365614 2.8435638,10.15563 2.4062161,10.333848 1.8579003,9.9699576 1.8770545,9.4908414 1.8643286,10.949206 3.0042736,12.330528 4.457647,12.54205 5.2910919,12.693803 6.1407066,12.435975 6.8372515,11.979334 7.5462209,11.57001 8.25519,11.160685 8.9641593,10.751361 c 0.2136906,0.370123 0.4273811,0.740247 0.6410718,1.11037 1.0166549,-1.76121 2.0335209,-3.5222978 3.0505999,-5.2832634 -2.033669,-6.52e-5 -4.0673376,-1.304e-4 -6.1010065,-1.958e-4 z"
       sodipodi:nodetypes="cccsccccccccccc"
       transform="matrix(0.96682019,0,0,0.96682019,0.10065518,0.11750161)" /><path
       id="BlueFrontArrow"
       style="fill:#0061c4;fill-opacity:1;stroke:none;stroke-width:0.0171066;stroke-dasharray:none;stroke-opacity:1;image-rendering:auto"
       d="M 6.4379916,6.4775073 C 6.6394768,6.8264899 6.8409621,7.1754725 7.0424474,7.5244552 5.6444839,8.327511 4.2537452,9.1442774 2.84987,9.9361695 2.4270333,10.108475 1.8969105,9.7566574 1.9154294,9.2934386 1.9031287,10.703415 3.0052473,12.038905 4.4103982,12.243409 5.2161896,12.390127 6.0376141,12.140858 6.7110478,11.699365 7.3964936,11.303622 8.0819393,10.907878 8.7673852,10.512135 8.9739853,10.869977 9.1805861,11.22782 9.3871858,11.585663 10.370109,9.8828891 11.353236,8.1802338 12.336568,6.4776967 10.370376,6.4776336 8.4041839,6.4775707 6.4379916,6.4775073 Z"
       sodipodi:nodetypes="cccsccccccccccc" /></g></svg>
